<?xml version="1.0" encoding="utf-8"?>
<!-- Generator: Adobe Illustrator 15.0.2, SVG Export Plug-In . SVG Version: 6.00 Build 0)  -->
<svg version="1.2" baseProfile="tiny" xmlns="http://www.w3.org/2000/svg" xmlns:xlink="http://www.w3.org/1999/xlink" x="0px"
	 y="0px" width="835.863px" height="153.698px" viewBox="0 0 835.863 153.698" overflow="inherit" xml:space="preserve">
<g id="Layer_1">
</g>
<g id="Hintergrund" display="none">
	<linearGradient id="SVGID_1_" gradientUnits="userSpaceOnUse" x1="421.374" y1="-515" x2="421.374" y2="202.0005">
		<stop  offset="0" style="stop-color:#F5F5F5"/>
		<stop  offset="1" style="stop-color:#E3E3E3"/>
	</linearGradient>
	<rect x="-20.126" y="-515" display="inline" fill="url(#SVGID_1_)" width="883" height="717"/>
</g>
<g id="Contents">
</g>
<g id="Layer_6">
</g>
<g id="Tool_x2C__Login">
	<linearGradient id="SVGID_2_" gradientUnits="userSpaceOnUse" x1="396.874" y1="87.0635" x2="-0.7051" y2="87.0635">
		<stop  offset="0" style="stop-color:#E3E3E3"/>
		<stop  offset="1" style="stop-color:#BDBDBD"/>
	</linearGradient>
	<rect x="-0.705" y="20.428" fill="url(#SVGID_2_)" width="397.579" height="133.271"/>
	<linearGradient id="SVGID_3_" gradientUnits="userSpaceOnUse" x1="836.4297" y1="87.0635" x2="396.874" y2="87.0635">
		<stop  offset="0" style="stop-color:#E3E3E3"/>
		<stop  offset="1" style="stop-color:#BDBDBD"/>
	</linearGradient>
	<rect x="396.874" y="20.428" fill="url(#SVGID_3_)" width="439.556" height="133.271"/>
</g>
<g id="Planner">
	<image width="177" height="273" xlink:href="AA09D253.png"  transform="matrix(0.48 0 0 0.48 82.4307 22.3633)">
	</image>
	<image width="177" height="273" xlink:href="AA09D251.png"  transform="matrix(0.48 0 0 0.48 584.0283 22.3633)">
	</image>
	<linearGradient id="SVGID_4_" gradientUnits="userSpaceOnUse" x1="836.4297" y1="39.4141" x2="0.4297" y2="39.4141">
		<stop  offset="0" style="stop-color:#E3E3E3"/>
		<stop  offset="1" style="stop-color:#5E5E5E"/>
	</linearGradient>
	<rect x="0.43" y="39" fill="url(#SVGID_4_)" width="836" height="0.828"/>
	<rect x="-0.705" y="18.794" fill="none" width="835.997" height="134.077"/>
	<image width="177" height="273" xlink:href="AA09D257.png"  transform="matrix(0.48 0 0 0.48 -1.1694 22.3633)">
	</image>
	<image width="177" height="273" xlink:href="AA09D250.png"  transform="matrix(0.48 0 0 0.48 166.0308 22.3633)">
	</image>
	<image width="177" height="273" xlink:href="AA09D25E.png"  transform="matrix(0.48 0 0 0.48 249.6299 22.3633)">
	</image>
	<image width="177" height="273" xlink:href="AA09D25F.png"  transform="matrix(0.48 0 0 0.48 333.2295 22.3633)">
	</image>
	<image width="177" height="273" xlink:href="AA09D252.png"  transform="matrix(0.48 0 0 0.48 416.8291 22.3633)">
	</image>
	<image width="177" height="273" xlink:href="AA09D255.png"  transform="matrix(0.48 0 0 0.48 500.4287 22.3633)">
	</image>
	<image width="177" height="273" xlink:href="AA09D256.png"  transform="matrix(0.48 0 0 0.48 667.6279 22.3633)">
	</image>
	<image width="177" height="273" xlink:href="936B6600.png"  transform="matrix(0.48 0 0 0.48 751.2275 22.3633)">
	</image>
	<image width="1746" height="38" xlink:href="936B6607.png"  transform="matrix(0.48 0 0 0.48 -0.7056 20.4277)">
	</image>
	<image width="50" height="24" xlink:href="936B6601.png"  transform="matrix(0.48 0 0 0.48 5.4551 25.8887)">
	</image>
	<image width="125" height="24" xlink:href="936B6603.png"  transform="matrix(0.48 0 0 0.48 418.5381 25.6719)">
	</image>
	<image width="117" height="19" xlink:href="936B661E.png"  transform="matrix(0.48 0 0 0.48 589.665 25.8594)">
	</image>
	<image width="46" height="19" xlink:href="936B661F.png"  transform="matrix(0.48 0 0 0.48 170.106 25.8887)">
	</image>
	<line fill="none" stroke="#D5D8DB" stroke-width="0.9289" x1="751.374" y1="152.871" x2="751.374" y2="18.794"/>
</g>
<g id="Planelemente">
	<image width="465" height="83" xlink:href="936B6602.png"  transform="matrix(0.48 0 0 0.48 402.2656 44.6191)">
	</image>
	<image width="1263" height="214" xlink:href="936B6605.png"  transform="matrix(0.48 0 0 0.48 408.874 51)">
	</image>
	<polygon fill="none" points="462.294,121 876.701,121.53 876.701,156.864 462.294,156.334 	"/>
	<image width="465" height="83" xlink:href="936B6606.png"  transform="matrix(0.48 0 0 0.48 3.2656 44.6191)">
	</image>
	<g>
		<image opacity="0.25" width="572" height="46" xlink:href="936B6604.png"  transform="matrix(0.48 0 0 0.48 166.9033 106.624)">
		</image>
		<g>
			<linearGradient id="SVGID_5_" gradientUnits="userSpaceOnUse" x1="168.9033" y1="116.624" x2="437.0771" y2="116.624">
				<stop  offset="0" style="stop-color:#0C1F46"/>
				<stop  offset="0.1918" style="stop-color:#152750"/>
				<stop  offset="0.5618" style="stop-color:#293E6E"/>
				<stop  offset="1" style="stop-color:#466AA6"/>
			</linearGradient>
			<path fill="url(#SVGID_5_)" d="M437.077,119.701c0,2.708-2.191,4.923-4.869,4.923H173.774c-2.68,0-4.871-2.215-4.871-4.923
				v-6.155c0-2.707,2.191-4.922,4.871-4.922h258.434c2.678,0,4.869,2.215,4.869,4.922V119.701z"/>
		</g>
	</g>
	<g>
		<image opacity="0.25" width="913" height="46" xlink:href="936B663B.png"  transform="matrix(0.48 0 0 0.48 3.874 127.957)">
		</image>
		<g>
			<linearGradient id="SVGID_6_" gradientUnits="userSpaceOnUse" x1="5.874" y1="137.957" x2="437.874" y2="137.957">
				<stop  offset="0" style="stop-color:#0C1F46"/>
				<stop  offset="0.1918" style="stop-color:#152750"/>
				<stop  offset="0.5618" style="stop-color:#293E6E"/>
				<stop  offset="1" style="stop-color:#466AA6"/>
			</linearGradient>
			<path fill="url(#SVGID_6_)" d="M437.874,141.034c0,2.708-2.191,4.923-4.869,4.923H10.745c-2.68,0-4.871-2.215-4.871-4.923v-6.155
				c0-2.707,2.191-4.922,4.871-4.922h422.26c2.678,0,4.869,2.215,4.869,4.922V141.034z"/>
		</g>
	</g>
	<image width="425" height="24" xlink:href="936B6625.png"  transform="matrix(0.48 0 0 0.48 13.4395 132.8496)">
	</image>
	<image width="298" height="24" xlink:href="936B6627.png"  transform="matrix(0.48 0 0 0.48 175.9307 112.0107)">
	</image>
	<g>
		<path fill="#FFFFFF" d="M425.071,89.969v7.608h4.537v0.96h-5.678v-8.568H425.071z"/>
		<path fill="#FFFFFF" d="M435.067,98.141c-0.463,0.353-1.047,0.528-1.752,0.528c-0.496,0-0.926-0.08-1.289-0.24
			c-0.365-0.159-0.67-0.384-0.918-0.672s-0.436-0.632-0.559-1.031c-0.125-0.4-0.193-0.836-0.211-1.309
			c0-0.472,0.072-0.904,0.217-1.296s0.346-0.732,0.605-1.02c0.26-0.288,0.568-0.513,0.924-0.673c0.357-0.159,0.746-0.239,1.17-0.239
			c0.553,0,1.01,0.113,1.375,0.342c0.363,0.228,0.656,0.518,0.875,0.87c0.221,0.352,0.373,0.736,0.457,1.151
			c0.084,0.416,0.117,0.812,0.102,1.188h-4.645c-0.008,0.271,0.025,0.53,0.098,0.773c0.07,0.244,0.188,0.461,0.348,0.648
			c0.16,0.188,0.363,0.338,0.611,0.45s0.541,0.168,0.877,0.168c0.432,0,0.785-0.1,1.061-0.3c0.277-0.2,0.459-0.504,0.547-0.912
			h1.008C435.831,97.265,435.532,97.789,435.067,98.141z M434.821,94.157c-0.092-0.216-0.215-0.402-0.371-0.559
			c-0.156-0.155-0.34-0.279-0.553-0.371c-0.211-0.093-0.445-0.139-0.701-0.139c-0.264,0-0.502,0.046-0.715,0.139
			c-0.211,0.092-0.395,0.218-0.545,0.378c-0.152,0.16-0.273,0.346-0.361,0.558s-0.139,0.438-0.156,0.678h3.564
			C434.968,94.602,434.913,94.373,434.821,94.157z"/>
		<path fill="#FFFFFF" d="M438.38,89.969v3.276h0.023c0.08-0.192,0.193-0.354,0.338-0.486c0.143-0.132,0.305-0.239,0.484-0.323
			c0.182-0.084,0.369-0.146,0.564-0.187s0.387-0.06,0.57-0.06c0.408,0,0.748,0.056,1.02,0.168c0.271,0.111,0.492,0.268,0.66,0.468
			s0.287,0.438,0.354,0.714c0.068,0.276,0.104,0.582,0.104,0.918v4.08h-1.021v-4.2c0-0.384-0.111-0.688-0.336-0.912
			c-0.223-0.224-0.531-0.336-0.924-0.336c-0.312,0-0.582,0.048-0.809,0.145c-0.229,0.096-0.42,0.231-0.57,0.407
			c-0.152,0.177-0.268,0.383-0.342,0.618c-0.076,0.236-0.115,0.494-0.115,0.774v3.504h-1.02v-8.568H438.38z"/>
		<path fill="#FFFFFF" d="M445.196,92.333v1.308h0.023c0.248-0.504,0.551-0.876,0.912-1.115c0.359-0.24,0.816-0.353,1.367-0.336
			v1.08c-0.408,0-0.756,0.056-1.043,0.168c-0.289,0.111-0.521,0.275-0.697,0.491c-0.176,0.217-0.303,0.479-0.383,0.786
			c-0.08,0.309-0.121,0.662-0.121,1.062v2.76h-1.02v-6.204H445.196z"/>
		<path fill="#FFFFFF" d="M449.288,97.151c0.096,0.155,0.221,0.28,0.377,0.372s0.332,0.158,0.529,0.197
			c0.195,0.041,0.396,0.061,0.605,0.061c0.16,0,0.328-0.012,0.504-0.036s0.338-0.068,0.486-0.132
			c0.148-0.064,0.27-0.158,0.365-0.282s0.145-0.282,0.145-0.474c0-0.265-0.1-0.464-0.301-0.601c-0.199-0.136-0.449-0.246-0.75-0.33
			c-0.299-0.084-0.625-0.159-0.977-0.228c-0.354-0.068-0.68-0.164-0.979-0.288c-0.301-0.124-0.551-0.298-0.75-0.522
			c-0.201-0.224-0.301-0.535-0.301-0.936c0-0.312,0.07-0.58,0.211-0.804c0.139-0.225,0.32-0.406,0.539-0.546
			c0.221-0.141,0.469-0.244,0.744-0.312c0.277-0.067,0.551-0.102,0.822-0.102c0.352,0,0.676,0.029,0.973,0.09
			c0.295,0.06,0.557,0.164,0.785,0.312c0.229,0.148,0.41,0.349,0.547,0.601c0.135,0.252,0.215,0.565,0.24,0.941h-1.021
			c-0.016-0.199-0.066-0.365-0.154-0.498c-0.09-0.132-0.201-0.237-0.338-0.317c-0.135-0.08-0.285-0.139-0.449-0.174
			c-0.164-0.036-0.33-0.055-0.498-0.055c-0.152,0-0.307,0.013-0.461,0.036c-0.156,0.024-0.299,0.066-0.428,0.126
			c-0.127,0.061-0.23,0.141-0.311,0.24s-0.121,0.229-0.121,0.39c0,0.177,0.062,0.322,0.186,0.438
			c0.125,0.116,0.283,0.212,0.475,0.288s0.408,0.14,0.648,0.191c0.24,0.053,0.48,0.106,0.721,0.162
			c0.256,0.057,0.506,0.124,0.75,0.204c0.242,0.08,0.459,0.187,0.646,0.318c0.189,0.132,0.34,0.298,0.457,0.498
			c0.115,0.2,0.174,0.448,0.174,0.744c0,0.376-0.078,0.688-0.234,0.936s-0.359,0.448-0.611,0.6
			c-0.252,0.152-0.537,0.259-0.852,0.318c-0.316,0.06-0.631,0.09-0.943,0.09c-0.344,0-0.672-0.036-0.984-0.107
			c-0.311-0.072-0.588-0.19-0.826-0.354c-0.24-0.164-0.434-0.38-0.576-0.647c-0.145-0.269-0.225-0.595-0.24-0.979h1.02
			C449.14,96.805,449.192,96.995,449.288,97.151z"/>
		<path fill="#FFFFFF" d="M457.399,92.333v0.9h-1.236v3.852c0,0.12,0.012,0.216,0.031,0.288s0.057,0.128,0.113,0.168
			s0.135,0.066,0.234,0.078s0.23,0.018,0.391,0.018h0.467v0.9h-0.779c-0.264,0-0.49-0.018-0.678-0.054s-0.34-0.103-0.457-0.198
			c-0.115-0.096-0.201-0.232-0.258-0.408c-0.055-0.176-0.084-0.408-0.084-0.696v-3.947h-1.055v-0.9h1.055v-1.86h1.02v1.86H457.399z"
			/>
		<path fill="#FFFFFF" d="M463.161,98.141c-0.465,0.353-1.049,0.528-1.752,0.528c-0.496,0-0.926-0.08-1.291-0.24
			c-0.363-0.159-0.67-0.384-0.918-0.672s-0.434-0.632-0.559-1.031c-0.123-0.4-0.193-0.836-0.209-1.309
			c0-0.472,0.072-0.904,0.217-1.296c0.143-0.392,0.346-0.732,0.605-1.02c0.26-0.288,0.568-0.513,0.924-0.673
			c0.355-0.159,0.746-0.239,1.17-0.239c0.553,0,1.01,0.113,1.373,0.342c0.365,0.228,0.656,0.518,0.877,0.87
			c0.221,0.352,0.371,0.736,0.455,1.151c0.084,0.416,0.119,0.812,0.104,1.188h-4.645c-0.008,0.271,0.023,0.53,0.096,0.773
			c0.072,0.244,0.188,0.461,0.348,0.648c0.16,0.188,0.365,0.338,0.613,0.45c0.246,0.112,0.539,0.168,0.875,0.168
			c0.432,0,0.787-0.1,1.062-0.3s0.457-0.504,0.545-0.912h1.008C463.925,97.265,463.624,97.789,463.161,98.141z M462.915,94.157
			c-0.092-0.216-0.217-0.402-0.373-0.559c-0.156-0.155-0.34-0.279-0.551-0.371c-0.213-0.093-0.447-0.139-0.703-0.139
			c-0.264,0-0.502,0.046-0.713,0.139c-0.213,0.092-0.395,0.218-0.547,0.378s-0.271,0.346-0.359,0.558s-0.141,0.438-0.156,0.678
			h3.564C463.06,94.602,463.007,94.373,462.915,94.157z"/>
		<path fill="#FFFFFF" d="M466.532,89.969v8.568h-1.02v-8.568H466.532z"/>
		<path fill="#FFFFFF" d="M469.437,89.969v8.568h-1.02v-8.568H469.437z"/>
		<path fill="#FFFFFF" d="M475.653,98.141c-0.465,0.353-1.049,0.528-1.752,0.528c-0.496,0-0.926-0.08-1.291-0.24
			c-0.363-0.159-0.67-0.384-0.918-0.672s-0.434-0.632-0.559-1.031c-0.123-0.4-0.193-0.836-0.209-1.309
			c0-0.472,0.072-0.904,0.217-1.296c0.143-0.392,0.346-0.732,0.605-1.02c0.26-0.288,0.568-0.513,0.924-0.673
			c0.355-0.159,0.746-0.239,1.17-0.239c0.553,0,1.01,0.113,1.373,0.342c0.365,0.228,0.656,0.518,0.877,0.87
			c0.221,0.352,0.371,0.736,0.455,1.151c0.084,0.416,0.119,0.812,0.104,1.188h-4.645c-0.008,0.271,0.023,0.53,0.096,0.773
			c0.072,0.244,0.188,0.461,0.348,0.648c0.16,0.188,0.365,0.338,0.613,0.45c0.246,0.112,0.539,0.168,0.875,0.168
			c0.432,0,0.787-0.1,1.062-0.3s0.457-0.504,0.545-0.912h1.008C476.417,97.265,476.116,97.789,475.653,98.141z M475.407,94.157
			c-0.092-0.216-0.217-0.402-0.373-0.559c-0.156-0.155-0.34-0.279-0.551-0.371c-0.213-0.093-0.447-0.139-0.703-0.139
			c-0.264,0-0.502,0.046-0.713,0.139c-0.213,0.092-0.395,0.218-0.547,0.378s-0.271,0.346-0.359,0.558s-0.141,0.438-0.156,0.678
			h3.564C475.552,94.602,475.499,94.373,475.407,94.157z"/>
		<path fill="#FFFFFF" d="M478.845,99.563c-0.232-0.444-0.43-0.895-0.594-1.351s-0.291-0.924-0.379-1.403
			c-0.088-0.48-0.131-0.984-0.131-1.513c0-0.943,0.156-1.896,0.473-2.855s0.787-1.853,1.41-2.677h0.779
			c-0.574,0.912-0.982,1.816-1.223,2.713c-0.24,0.896-0.361,1.836-0.361,2.819c0,1.008,0.123,1.964,0.367,2.868
			s0.65,1.816,1.217,2.736h-0.779C479.337,100.453,479.077,100.007,478.845,99.563z"/>
		<path fill="#FFFFFF" d="M482.251,92.333v0.984h0.023c0.424-0.752,1.096-1.128,2.016-1.128c0.408,0,0.748,0.056,1.021,0.168
			c0.271,0.111,0.492,0.268,0.66,0.468s0.285,0.438,0.354,0.714s0.102,0.582,0.102,0.918v4.08h-1.02v-4.2
			c0-0.384-0.113-0.688-0.336-0.912c-0.225-0.224-0.533-0.336-0.924-0.336c-0.312,0-0.582,0.048-0.811,0.145
			c-0.229,0.096-0.418,0.231-0.57,0.407c-0.152,0.177-0.266,0.383-0.342,0.618c-0.076,0.236-0.113,0.494-0.113,0.774v3.504h-1.021
			v-6.204H482.251z"/>
		<path fill="#FFFFFF" d="M488.538,98.195c0.24-0.9,0.361-1.838,0.361-2.814c0-1.008-0.123-1.966-0.367-2.874
			c-0.244-0.907-0.645-1.821-1.205-2.742h0.768c0.289,0.448,0.549,0.895,0.781,1.339c0.23,0.443,0.43,0.896,0.594,1.355
			s0.289,0.93,0.377,1.41c0.088,0.479,0.133,0.984,0.133,1.512c0,0.944-0.158,1.895-0.475,2.851c-0.316,0.955-0.785,1.846-1.41,2.67
			h-0.768C487.896,99.997,488.3,99.095,488.538,98.195z"/>
		<path fill="#FFFFFF" d="M499.892,98.669c-0.266,0-0.475-0.074-0.631-0.222c-0.156-0.148-0.234-0.391-0.234-0.727
			c-0.279,0.336-0.605,0.578-0.977,0.727c-0.373,0.147-0.775,0.222-1.207,0.222c-0.279,0-0.545-0.03-0.791-0.09
			c-0.248-0.06-0.467-0.16-0.654-0.3c-0.189-0.14-0.336-0.32-0.445-0.54c-0.107-0.22-0.162-0.486-0.162-0.798
			c0-0.353,0.061-0.641,0.182-0.864c0.119-0.224,0.277-0.406,0.473-0.546c0.197-0.14,0.42-0.246,0.672-0.318s0.51-0.132,0.775-0.18
			c0.279-0.056,0.545-0.098,0.797-0.126s0.475-0.068,0.666-0.12c0.193-0.052,0.344-0.128,0.457-0.228
			c0.111-0.101,0.168-0.246,0.168-0.438c0-0.224-0.043-0.404-0.127-0.54s-0.191-0.24-0.324-0.312
			c-0.131-0.072-0.279-0.12-0.443-0.145c-0.164-0.023-0.326-0.036-0.486-0.036c-0.432,0-0.791,0.082-1.08,0.246
			c-0.287,0.164-0.443,0.475-0.467,0.93h-1.021c0.016-0.384,0.096-0.708,0.24-0.972s0.336-0.478,0.576-0.642
			s0.516-0.282,0.828-0.354c0.312-0.071,0.641-0.107,0.984-0.107c0.279,0,0.559,0.02,0.834,0.06s0.525,0.122,0.75,0.246
			c0.223,0.124,0.404,0.298,0.539,0.522c0.137,0.224,0.205,0.516,0.205,0.876v3.191c0,0.24,0.014,0.416,0.041,0.528
			c0.029,0.112,0.123,0.168,0.283,0.168c0.088,0,0.191-0.02,0.311-0.061v0.792C500.446,98.617,500.202,98.669,499.892,98.669z
			 M498.462,95.543c-0.207,0.044-0.426,0.08-0.652,0.108c-0.229,0.028-0.459,0.06-0.691,0.096c-0.23,0.036-0.439,0.094-0.623,0.174
			s-0.334,0.194-0.451,0.342c-0.115,0.148-0.174,0.351-0.174,0.606c0,0.168,0.035,0.311,0.104,0.426
			c0.066,0.116,0.154,0.21,0.264,0.282c0.107,0.072,0.236,0.124,0.383,0.156c0.148,0.032,0.299,0.048,0.451,0.048
			c0.336,0,0.623-0.046,0.863-0.138c0.24-0.093,0.436-0.208,0.588-0.349c0.152-0.14,0.264-0.292,0.336-0.456
			s0.109-0.317,0.109-0.462v-1.044C498.839,95.429,498.671,95.499,498.462,95.543z"/>
		<path fill="#FFFFFF" d="M505.985,98.537v-0.984h-0.023c-0.217,0.385-0.492,0.666-0.828,0.847c-0.336,0.18-0.732,0.27-1.188,0.27
			c-0.408,0-0.748-0.054-1.021-0.162c-0.271-0.107-0.492-0.262-0.66-0.462c-0.168-0.199-0.285-0.438-0.354-0.714
			s-0.102-0.582-0.102-0.918v-4.08h1.02v4.2c0,0.384,0.113,0.688,0.336,0.912c0.225,0.224,0.533,0.336,0.924,0.336
			c0.312,0,0.582-0.048,0.811-0.145c0.229-0.096,0.418-0.231,0.57-0.407s0.266-0.382,0.342-0.618s0.113-0.494,0.113-0.774v-3.504
			h1.021v6.204H505.985z"/>
		<path fill="#FFFFFF" d="M509.501,97.151c0.096,0.155,0.223,0.28,0.379,0.372s0.332,0.158,0.527,0.197
			c0.197,0.041,0.398,0.061,0.605,0.061c0.16,0,0.328-0.012,0.506-0.036c0.176-0.024,0.338-0.068,0.484-0.132
			c0.148-0.064,0.271-0.158,0.367-0.282s0.143-0.282,0.143-0.474c0-0.265-0.1-0.464-0.299-0.601c-0.201-0.136-0.451-0.246-0.75-0.33
			c-0.301-0.084-0.627-0.159-0.979-0.228s-0.678-0.164-0.979-0.288c-0.299-0.124-0.549-0.298-0.75-0.522
			c-0.199-0.224-0.299-0.535-0.299-0.936c0-0.312,0.07-0.58,0.209-0.804c0.141-0.225,0.32-0.406,0.541-0.546
			c0.219-0.141,0.467-0.244,0.744-0.312c0.275-0.067,0.549-0.102,0.822-0.102c0.352,0,0.676,0.029,0.971,0.09
			c0.297,0.06,0.559,0.164,0.787,0.312c0.227,0.148,0.41,0.349,0.545,0.601c0.137,0.252,0.217,0.565,0.24,0.941h-1.02
			c-0.016-0.199-0.068-0.365-0.156-0.498c-0.088-0.132-0.199-0.237-0.336-0.317s-0.287-0.139-0.449-0.174
			c-0.164-0.036-0.33-0.055-0.498-0.055c-0.152,0-0.307,0.013-0.463,0.036c-0.156,0.024-0.299,0.066-0.426,0.126
			c-0.129,0.061-0.232,0.141-0.312,0.24s-0.119,0.229-0.119,0.39c0,0.177,0.061,0.322,0.186,0.438
			c0.123,0.116,0.281,0.212,0.475,0.288c0.191,0.076,0.408,0.14,0.646,0.191c0.24,0.053,0.48,0.106,0.721,0.162
			c0.256,0.057,0.506,0.124,0.75,0.204s0.461,0.187,0.648,0.318s0.34,0.298,0.455,0.498c0.117,0.2,0.174,0.448,0.174,0.744
			c0,0.376-0.078,0.688-0.232,0.936c-0.156,0.248-0.361,0.448-0.613,0.6c-0.252,0.152-0.535,0.259-0.852,0.318
			s-0.631,0.09-0.941,0.09c-0.344,0-0.672-0.036-0.984-0.107c-0.312-0.072-0.588-0.19-0.828-0.354s-0.432-0.38-0.576-0.647
			c-0.145-0.269-0.225-0.595-0.24-0.979h1.02C509.353,96.805,509.405,96.995,509.501,97.151z"/>
		<path fill="#FFFFFF" d="M515.741,97.151c0.096,0.155,0.223,0.28,0.379,0.372s0.332,0.158,0.527,0.197
			c0.197,0.041,0.398,0.061,0.605,0.061c0.16,0,0.328-0.012,0.506-0.036c0.176-0.024,0.338-0.068,0.484-0.132
			c0.148-0.064,0.271-0.158,0.367-0.282s0.143-0.282,0.143-0.474c0-0.265-0.1-0.464-0.299-0.601c-0.201-0.136-0.451-0.246-0.75-0.33
			c-0.301-0.084-0.627-0.159-0.979-0.228s-0.678-0.164-0.979-0.288c-0.299-0.124-0.549-0.298-0.75-0.522
			c-0.199-0.224-0.299-0.535-0.299-0.936c0-0.312,0.07-0.58,0.209-0.804c0.141-0.225,0.32-0.406,0.541-0.546
			c0.219-0.141,0.467-0.244,0.744-0.312c0.275-0.067,0.549-0.102,0.822-0.102c0.352,0,0.676,0.029,0.971,0.09
			c0.297,0.06,0.559,0.164,0.787,0.312c0.227,0.148,0.41,0.349,0.545,0.601c0.137,0.252,0.217,0.565,0.24,0.941h-1.02
			c-0.016-0.199-0.068-0.365-0.156-0.498c-0.088-0.132-0.199-0.237-0.336-0.317s-0.287-0.139-0.449-0.174
			c-0.164-0.036-0.33-0.055-0.498-0.055c-0.152,0-0.307,0.013-0.463,0.036c-0.156,0.024-0.299,0.066-0.426,0.126
			c-0.129,0.061-0.232,0.141-0.312,0.24s-0.119,0.229-0.119,0.39c0,0.177,0.061,0.322,0.186,0.438
			c0.123,0.116,0.281,0.212,0.475,0.288c0.191,0.076,0.408,0.14,0.646,0.191c0.24,0.053,0.48,0.106,0.721,0.162
			c0.256,0.057,0.506,0.124,0.75,0.204s0.461,0.187,0.648,0.318s0.34,0.298,0.455,0.498c0.117,0.2,0.174,0.448,0.174,0.744
			c0,0.376-0.078,0.688-0.232,0.936c-0.156,0.248-0.361,0.448-0.613,0.6c-0.252,0.152-0.535,0.259-0.852,0.318
			s-0.631,0.09-0.941,0.09c-0.344,0-0.672-0.036-0.984-0.107c-0.312-0.072-0.588-0.19-0.828-0.354s-0.432-0.38-0.576-0.647
			c-0.145-0.269-0.225-0.595-0.24-0.979h1.02C515.593,96.805,515.646,96.995,515.741,97.151z"/>
		<path fill="#FFFFFF" d="M524.909,93.413c-0.256-0.216-0.6-0.324-1.031-0.324c-0.367,0-0.676,0.068-0.924,0.204
			c-0.248,0.137-0.445,0.316-0.594,0.54c-0.148,0.225-0.254,0.482-0.318,0.774s-0.096,0.594-0.096,0.905
			c0,0.288,0.033,0.568,0.102,0.841c0.068,0.271,0.174,0.514,0.318,0.726s0.332,0.382,0.564,0.51
			c0.23,0.128,0.508,0.192,0.828,0.192c0.504,0,0.896-0.132,1.182-0.396c0.283-0.264,0.457-0.636,0.521-1.115h1.045
			c-0.113,0.768-0.398,1.359-0.859,1.775c-0.459,0.416-1.086,0.624-1.877,0.624c-0.473,0-0.891-0.076-1.254-0.228
			c-0.365-0.152-0.668-0.368-0.912-0.648s-0.428-0.613-0.553-1.002c-0.123-0.388-0.186-0.813-0.186-1.278
			c0-0.464,0.061-0.897,0.18-1.302c0.121-0.403,0.303-0.756,0.547-1.056s0.549-0.536,0.918-0.708
			c0.367-0.172,0.795-0.258,1.283-0.258c0.352,0,0.682,0.042,0.99,0.126s0.58,0.214,0.816,0.39s0.43,0.398,0.582,0.666
			c0.15,0.269,0.248,0.586,0.287,0.954h-1.055C525.335,93.934,525.167,93.629,524.909,93.413z"/>
		<path fill="#FFFFFF" d="M528.905,89.969v3.276h0.023c0.08-0.192,0.191-0.354,0.336-0.486s0.307-0.239,0.486-0.323
			s0.367-0.146,0.564-0.187c0.195-0.04,0.385-0.06,0.568-0.06c0.408,0,0.748,0.056,1.021,0.168c0.271,0.111,0.492,0.268,0.66,0.468
			s0.285,0.438,0.354,0.714s0.102,0.582,0.102,0.918v4.08h-1.02v-4.2c0-0.384-0.113-0.688-0.336-0.912
			c-0.225-0.224-0.533-0.336-0.924-0.336c-0.312,0-0.582,0.048-0.811,0.145c-0.229,0.096-0.418,0.231-0.57,0.407
			c-0.152,0.177-0.266,0.383-0.342,0.618c-0.076,0.236-0.113,0.494-0.113,0.774v3.504h-1.021v-8.568H528.905z"/>
		<path fill="#FFFFFF" d="M535.722,92.333v1.308h0.023c0.248-0.504,0.551-0.876,0.912-1.115c0.359-0.24,0.816-0.353,1.367-0.336
			v1.08c-0.408,0-0.756,0.056-1.043,0.168c-0.289,0.111-0.521,0.275-0.697,0.491c-0.176,0.217-0.303,0.479-0.383,0.786
			c-0.08,0.309-0.121,0.662-0.121,1.062v2.76h-1.02v-6.204H535.722z"/>
		<path fill="#FFFFFF" d="M543.21,98.141c-0.465,0.353-1.049,0.528-1.752,0.528c-0.496,0-0.926-0.08-1.291-0.24
			c-0.363-0.159-0.67-0.384-0.918-0.672s-0.434-0.632-0.559-1.031c-0.123-0.4-0.193-0.836-0.209-1.309
			c0-0.472,0.072-0.904,0.217-1.296c0.143-0.392,0.346-0.732,0.605-1.02c0.26-0.288,0.568-0.513,0.924-0.673
			c0.355-0.159,0.746-0.239,1.17-0.239c0.553,0,1.01,0.113,1.373,0.342c0.365,0.228,0.656,0.518,0.877,0.87
			c0.221,0.352,0.371,0.736,0.455,1.151c0.084,0.416,0.119,0.812,0.104,1.188h-4.645c-0.008,0.271,0.023,0.53,0.096,0.773
			c0.072,0.244,0.188,0.461,0.348,0.648c0.16,0.188,0.365,0.338,0.613,0.45c0.246,0.112,0.539,0.168,0.875,0.168
			c0.432,0,0.787-0.1,1.062-0.3s0.457-0.504,0.545-0.912h1.008C543.974,97.265,543.673,97.789,543.21,98.141z M542.964,94.157
			c-0.092-0.216-0.217-0.402-0.373-0.559c-0.156-0.155-0.34-0.279-0.551-0.371c-0.213-0.093-0.447-0.139-0.703-0.139
			c-0.264,0-0.502,0.046-0.713,0.139c-0.213,0.092-0.395,0.218-0.547,0.378s-0.271,0.346-0.359,0.558s-0.141,0.438-0.156,0.678
			h3.564C543.108,94.602,543.056,94.373,542.964,94.157z"/>
		<path fill="#FFFFFF" d="M545.562,91.217v-1.248h1.02v1.248H545.562z M546.581,92.333v6.204h-1.02v-6.204H546.581z"/>
		<path fill="#FFFFFF" d="M549.46,89.969v3.204h0.023c0.168-0.344,0.434-0.594,0.793-0.75c0.359-0.155,0.756-0.233,1.188-0.233
			c0.48,0,0.898,0.088,1.254,0.264s0.652,0.414,0.889,0.714s0.414,0.646,0.533,1.038c0.121,0.393,0.18,0.809,0.18,1.248
			c0,0.44-0.057,0.856-0.174,1.248c-0.115,0.392-0.291,0.734-0.527,1.026s-0.531,0.521-0.889,0.689
			c-0.355,0.168-0.77,0.252-1.242,0.252c-0.15,0-0.32-0.016-0.51-0.048c-0.188-0.032-0.373-0.084-0.557-0.156
			c-0.186-0.071-0.359-0.17-0.523-0.294s-0.301-0.277-0.414-0.462h-0.023v0.828h-1.02v-8.568H549.46z M553.126,94.535
			c-0.076-0.276-0.191-0.522-0.348-0.738s-0.355-0.388-0.6-0.516s-0.531-0.192-0.859-0.192c-0.344,0-0.635,0.068-0.875,0.204
			c-0.24,0.137-0.436,0.314-0.588,0.534s-0.262,0.47-0.33,0.75s-0.102,0.563-0.102,0.852c0,0.305,0.035,0.599,0.107,0.883
			c0.072,0.283,0.186,0.533,0.342,0.75c0.156,0.216,0.357,0.39,0.605,0.521s0.549,0.198,0.9,0.198s0.646-0.068,0.883-0.204
			s0.426-0.316,0.57-0.54c0.143-0.224,0.248-0.48,0.311-0.768c0.064-0.288,0.096-0.584,0.096-0.889
			C553.239,95.093,553.202,94.812,553.126,94.535z"/>
		<path fill="#FFFFFF" d="M560.153,98.141c-0.465,0.353-1.049,0.528-1.752,0.528c-0.496,0-0.926-0.08-1.291-0.24
			c-0.363-0.159-0.67-0.384-0.918-0.672s-0.434-0.632-0.559-1.031c-0.123-0.4-0.193-0.836-0.209-1.309
			c0-0.472,0.072-0.904,0.217-1.296c0.143-0.392,0.346-0.732,0.605-1.02c0.26-0.288,0.568-0.513,0.924-0.673
			c0.355-0.159,0.746-0.239,1.17-0.239c0.553,0,1.01,0.113,1.373,0.342c0.365,0.228,0.656,0.518,0.877,0.87
			c0.221,0.352,0.371,0.736,0.455,1.151c0.084,0.416,0.119,0.812,0.104,1.188h-4.645c-0.008,0.271,0.023,0.53,0.096,0.773
			c0.072,0.244,0.188,0.461,0.348,0.648c0.16,0.188,0.365,0.338,0.613,0.45c0.246,0.112,0.539,0.168,0.875,0.168
			c0.432,0,0.787-0.1,1.062-0.3s0.457-0.504,0.545-0.912h1.008C560.917,97.265,560.616,97.789,560.153,98.141z M559.907,94.157
			c-0.092-0.216-0.217-0.402-0.373-0.559c-0.156-0.155-0.34-0.279-0.551-0.371c-0.213-0.093-0.447-0.139-0.703-0.139
			c-0.264,0-0.502,0.046-0.713,0.139c-0.213,0.092-0.395,0.218-0.547,0.378s-0.271,0.346-0.359,0.558s-0.141,0.438-0.156,0.678
			h3.564C560.052,94.602,559.999,94.373,559.907,94.157z"/>
		<path fill="#FFFFFF" d="M563.405,92.333v0.984h0.023c0.424-0.752,1.096-1.128,2.016-1.128c0.408,0,0.748,0.056,1.021,0.168
			c0.271,0.111,0.492,0.268,0.66,0.468s0.285,0.438,0.354,0.714s0.102,0.582,0.102,0.918v4.08h-1.02v-4.2
			c0-0.384-0.113-0.688-0.336-0.912c-0.225-0.224-0.533-0.336-0.924-0.336c-0.312,0-0.582,0.048-0.811,0.145
			c-0.229,0.096-0.418,0.231-0.57,0.407c-0.152,0.177-0.266,0.383-0.342,0.618c-0.076,0.236-0.113,0.494-0.113,0.774v3.504h-1.021
			v-6.204H563.405z"/>
	</g>
	<image width="231" height="19" xlink:href="936B662A.png"  transform="matrix(0.48 0 0 0.48 601.2119 68.7646)">
	</image>
	<image width="365" height="24" xlink:href="936B662B.png"  transform="matrix(0.48 0 0 0.48 481.8584 112.2207)">
	</image>
	<image width="645" height="24" xlink:href="936B662D.png"  transform="matrix(0.48 0 0 0.48 496.4385 133.1768)">
	</image>
</g>
<g id="Logos">
	<linearGradient id="SVGID_7_" gradientUnits="userSpaceOnUse" x1="0" y1="9.5" x2="836.0605" y2="9.5">
		<stop  offset="0" style="stop-color:#0C1F46"/>
		<stop  offset="0.1918" style="stop-color:#152750"/>
		<stop  offset="0.5618" style="stop-color:#293E6E"/>
		<stop  offset="1" style="stop-color:#466AA6"/>
	</linearGradient>
	<rect fill="url(#SVGID_7_)" width="836.061" height="19"/>
</g>
<g id="Layer_10">
	<linearGradient id="SVGID_8_" gradientUnits="userSpaceOnUse" x1="836.0605" y1="19.4141" x2="0.4297" y2="19.4141">
		<stop  offset="0" style="stop-color:#E3E3E3"/>
		<stop  offset="1" style="stop-color:#5E5E5E"/>
	</linearGradient>
	<polygon fill="url(#SVGID_8_)" points="835.531,19.828 0.43,19.828 0.43,19 836.061,19 	"/>
	<g>
		<path fill="#FFFFFF" d="M4.28,3.092h2.448v10.132h4.335v2.006H4.28V3.092z"/>
		<path fill="#FFFFFF" d="M14.769,11.744c0,0.272,0.02,0.535,0.06,0.791c0.039,0.255,0.104,0.481,0.195,0.68
			c0.091,0.199,0.21,0.357,0.357,0.477c0.146,0.119,0.328,0.178,0.544,0.178c0.396,0,0.686-0.141,0.866-0.425
			c0.182-0.283,0.307-0.714,0.374-1.292h2.108c-0.045,1.065-0.329,1.876-0.85,2.432c-0.521,0.555-1.344,0.832-2.466,0.832
			c-0.85,0-1.513-0.142-1.988-0.424c-0.477-0.283-0.828-0.658-1.055-1.123s-0.365-0.986-0.416-1.563
			c-0.051-0.578-0.076-1.156-0.076-1.734c0-0.612,0.042-1.201,0.127-1.768c0.085-0.567,0.255-1.071,0.51-1.513
			c0.256-0.442,0.621-0.793,1.097-1.055c0.477-0.26,1.11-0.391,1.904-0.391c0.68,0,1.238,0.11,1.675,0.331
			c0.436,0.222,0.778,0.533,1.028,0.935c0.249,0.403,0.419,0.891,0.51,1.463s0.136,1.209,0.136,1.912v0.527h-4.641V11.744z
			 M17.098,8.693c-0.034-0.267-0.094-0.493-0.179-0.68c-0.085-0.188-0.204-0.329-0.357-0.426c-0.152-0.096-0.348-0.145-0.586-0.145
			s-0.434,0.055-0.587,0.162c-0.152,0.107-0.274,0.249-0.365,0.424c-0.091,0.177-0.156,0.372-0.195,0.588
			c-0.04,0.215-0.06,0.43-0.06,0.646v0.356h2.396C17.155,9.269,17.132,8.959,17.098,8.693z"/>
		<path fill="#FFFFFF" d="M23.661,3.092v3.927h0.034c0.453-0.782,1.195-1.173,2.227-1.173c0.748,0,1.323,0.203,1.726,0.611
			s0.604,1.071,0.604,1.989v6.783h-2.346V8.922c0-0.476-0.079-0.807-0.238-0.994c-0.158-0.187-0.414-0.28-0.765-0.28
			c-0.827,0-1.241,0.505-1.241,1.513v6.069h-2.346V3.092H23.661z"/>
		<path fill="#FFFFFF" d="M32.739,6.084v1.224h0.033c0.238-0.442,0.527-0.796,0.867-1.062s0.754-0.399,1.241-0.399
			c0.068,0,0.139,0.003,0.213,0.008c0.073,0.006,0.145,0.015,0.212,0.025v2.244c-0.125-0.011-0.246-0.02-0.365-0.025
			S34.699,8.09,34.575,8.09c-0.204,0-0.408,0.027-0.612,0.084c-0.204,0.058-0.391,0.15-0.561,0.281
			c-0.171,0.131-0.307,0.301-0.408,0.51c-0.103,0.21-0.153,0.468-0.153,0.773v5.491h-2.346V6.084H32.739z"/>
		<path fill="#FFFFFF" d="M39.266,3.092v12.138H36.92V3.092H39.266z"/>
		<path fill="#FFFFFF" d="M44.027,2.955v2.006h-2.346V2.955H44.027z M44.027,6.084v9.146h-2.346V6.084H44.027z"/>
		<path fill="#FFFFFF" d="M48.6,6.084v1.07h0.033c0.25-0.453,0.572-0.785,0.97-0.994c0.396-0.21,0.85-0.314,1.359-0.314
			c0.748,0,1.323,0.203,1.726,0.611s0.604,1.071,0.604,1.989v6.783h-2.346V8.922c0-0.476-0.079-0.807-0.238-0.994
			c-0.158-0.187-0.414-0.28-0.765-0.28c-0.827,0-1.241,0.505-1.241,1.513v6.069h-2.346V6.084H48.6z"/>
		<path fill="#FFFFFF" d="M62.386,14.771c0,1.179-0.292,2.062-0.875,2.651c-0.584,0.59-1.562,0.885-2.933,0.885
			c-0.998,0-1.766-0.213-2.304-0.638s-0.808-1.028-0.808-1.811h2.244c0,0.294,0.119,0.526,0.357,0.697
			c0.112,0.079,0.234,0.142,0.365,0.187c0.13,0.045,0.269,0.068,0.416,0.068c0.477,0,0.811-0.152,1.003-0.459
			c0.193-0.307,0.289-0.686,0.289-1.139v-1.207h-0.033c-0.238,0.34-0.53,0.611-0.876,0.815s-0.705,0.306-1.079,0.306
			c-0.93,0-1.63-0.354-2.1-1.062c-0.471-0.707-0.706-1.895-0.706-3.561c0-0.533,0.031-1.077,0.094-1.633
			c0.062-0.555,0.192-1.057,0.391-1.504S56.32,6.554,56.7,6.271s0.887-0.425,1.521-0.425c0.329,0,0.669,0.091,1.021,0.271
			c0.351,0.182,0.64,0.51,0.867,0.986h0.033v-1.02h2.244V14.771z M57.737,11.847c0.028,0.283,0.085,0.535,0.17,0.757
			c0.085,0.221,0.204,0.396,0.357,0.526c0.152,0.13,0.354,0.196,0.604,0.196c0.249,0,0.456-0.066,0.62-0.196
			s0.295-0.309,0.392-0.535c0.096-0.228,0.164-0.502,0.203-0.825c0.04-0.322,0.06-0.677,0.06-1.062c0-1.11-0.088-1.897-0.263-2.362
			c-0.177-0.465-0.496-0.697-0.961-0.697c-0.261,0-0.471,0.057-0.629,0.17c-0.159,0.114-0.283,0.298-0.374,0.553
			s-0.15,0.595-0.179,1.021c-0.028,0.424-0.042,0.943-0.042,1.555C57.695,11.263,57.708,11.563,57.737,11.847z"/>
		<path fill="#FFFFFF" d="M66.433,12.543c0,0.397,0.104,0.717,0.314,0.961s0.513,0.365,0.909,0.365c0.363,0,0.652-0.09,0.867-0.271
			s0.323-0.453,0.323-0.816c0-0.295-0.085-0.518-0.255-0.672c-0.17-0.152-0.368-0.273-0.595-0.365l-1.649-0.595
			c-0.646-0.227-1.134-0.546-1.462-0.96c-0.329-0.414-0.493-0.943-0.493-1.59c0-0.374,0.062-0.729,0.188-1.062
			c0.124-0.334,0.322-0.626,0.595-0.875c0.271-0.25,0.62-0.448,1.045-0.596c0.426-0.146,0.938-0.221,1.539-0.221
			c1.065,0,1.853,0.227,2.363,0.68c0.51,0.453,0.765,1.094,0.765,1.921V8.82h-2.108c0-0.476-0.076-0.824-0.229-1.045
			c-0.152-0.221-0.422-0.332-0.808-0.332c-0.295,0-0.552,0.082-0.773,0.246c-0.221,0.165-0.331,0.412-0.331,0.74
			c0,0.227,0.07,0.431,0.212,0.611c0.142,0.182,0.411,0.335,0.808,0.459l1.411,0.477c0.736,0.25,1.258,0.575,1.564,0.978
			c0.306,0.402,0.459,0.949,0.459,1.641c0,0.487-0.085,0.909-0.255,1.267c-0.17,0.356-0.405,0.654-0.706,0.893
			c-0.3,0.238-0.657,0.408-1.07,0.51c-0.414,0.102-0.87,0.152-1.369,0.152c-0.657,0-1.204-0.062-1.641-0.187
			s-0.781-0.312-1.037-0.562c-0.255-0.248-0.433-0.552-0.535-0.909c-0.102-0.356-0.153-0.757-0.153-1.198v-0.323h2.108V12.543z"/>
		<path fill="#FFFFFF" d="M74.661,12.543c0,0.397,0.104,0.717,0.314,0.961s0.513,0.365,0.909,0.365c0.363,0,0.652-0.09,0.867-0.271
			s0.323-0.453,0.323-0.816c0-0.295-0.085-0.518-0.255-0.672c-0.17-0.152-0.368-0.273-0.595-0.365l-1.649-0.595
			c-0.646-0.227-1.134-0.546-1.462-0.96c-0.329-0.414-0.493-0.943-0.493-1.59c0-0.374,0.062-0.729,0.188-1.062
			c0.124-0.334,0.322-0.626,0.595-0.875c0.271-0.25,0.62-0.448,1.045-0.596c0.426-0.146,0.938-0.221,1.539-0.221
			c1.065,0,1.853,0.227,2.363,0.68c0.51,0.453,0.765,1.094,0.765,1.921V8.82h-2.108c0-0.476-0.076-0.824-0.229-1.045
			c-0.152-0.221-0.422-0.332-0.808-0.332c-0.295,0-0.552,0.082-0.773,0.246c-0.221,0.165-0.331,0.412-0.331,0.74
			c0,0.227,0.07,0.431,0.212,0.611c0.142,0.182,0.411,0.335,0.808,0.459l1.411,0.477c0.736,0.25,1.258,0.575,1.564,0.978
			c0.306,0.402,0.459,0.949,0.459,1.641c0,0.487-0.085,0.909-0.255,1.267c-0.17,0.356-0.405,0.654-0.706,0.893
			c-0.3,0.238-0.657,0.408-1.07,0.51c-0.414,0.102-0.87,0.152-1.369,0.152c-0.657,0-1.204-0.062-1.641-0.187
			s-0.781-0.312-1.037-0.562c-0.255-0.248-0.433-0.552-0.535-0.909c-0.102-0.356-0.153-0.757-0.153-1.198v-0.323h2.108V12.543z"/>
		<path fill="#FFFFFF" d="M83.177,11.744c0,0.272,0.02,0.535,0.06,0.791c0.039,0.255,0.104,0.481,0.195,0.68
			c0.091,0.199,0.21,0.357,0.357,0.477c0.146,0.119,0.328,0.178,0.544,0.178c0.396,0,0.686-0.141,0.866-0.425
			c0.182-0.283,0.307-0.714,0.374-1.292h2.108c-0.045,1.065-0.329,1.876-0.85,2.432c-0.521,0.555-1.344,0.832-2.466,0.832
			c-0.85,0-1.513-0.142-1.988-0.424c-0.477-0.283-0.828-0.658-1.055-1.123s-0.365-0.986-0.416-1.563
			c-0.051-0.578-0.076-1.156-0.076-1.734c0-0.612,0.042-1.201,0.127-1.768c0.085-0.567,0.255-1.071,0.51-1.513
			c0.256-0.442,0.621-0.793,1.097-1.055c0.477-0.26,1.11-0.391,1.904-0.391c0.68,0,1.238,0.11,1.675,0.331
			c0.436,0.222,0.778,0.533,1.028,0.935c0.249,0.403,0.419,0.891,0.51,1.463s0.136,1.209,0.136,1.912v0.527h-4.641V11.744z
			 M85.506,8.693c-0.034-0.267-0.094-0.493-0.179-0.68c-0.085-0.188-0.204-0.329-0.357-0.426c-0.152-0.096-0.348-0.145-0.586-0.145
			s-0.434,0.055-0.587,0.162c-0.152,0.107-0.274,0.249-0.365,0.424c-0.091,0.177-0.156,0.372-0.195,0.588
			c-0.04,0.215-0.06,0.43-0.06,0.646v0.356h2.396C85.563,9.269,85.541,8.959,85.506,8.693z"/>
		<path fill="#FFFFFF" d="M92.154,3.092v12.138h-2.346V3.092H92.154z"/>
		<path fill="#FFFFFF" d="M96.489,11.744c0,0.272,0.02,0.535,0.06,0.791c0.039,0.255,0.104,0.481,0.195,0.68
			c0.091,0.199,0.21,0.357,0.357,0.477c0.146,0.119,0.328,0.178,0.544,0.178c0.396,0,0.686-0.141,0.866-0.425
			c0.182-0.283,0.307-0.714,0.374-1.292h2.108c-0.045,1.065-0.329,1.876-0.85,2.432c-0.521,0.555-1.344,0.832-2.466,0.832
			c-0.85,0-1.513-0.142-1.988-0.424c-0.477-0.283-0.828-0.658-1.055-1.123s-0.365-0.986-0.416-1.563
			c-0.051-0.578-0.076-1.156-0.076-1.734c0-0.612,0.042-1.201,0.127-1.768c0.085-0.567,0.255-1.071,0.51-1.513
			c0.256-0.442,0.621-0.793,1.097-1.055c0.477-0.26,1.11-0.391,1.904-0.391c0.68,0,1.238,0.11,1.675,0.331
			c0.436,0.222,0.778,0.533,1.028,0.935c0.249,0.403,0.419,0.891,0.51,1.463s0.136,1.209,0.136,1.912v0.527h-4.641V11.744z
			 M98.818,8.693c-0.034-0.267-0.094-0.493-0.179-0.68c-0.085-0.188-0.204-0.329-0.357-0.426c-0.152-0.096-0.348-0.145-0.586-0.145
			s-0.434,0.055-0.587,0.162c-0.152,0.107-0.274,0.249-0.365,0.424c-0.091,0.177-0.156,0.372-0.195,0.588
			c-0.04,0.215-0.06,0.43-0.06,0.646v0.356h2.396C98.875,9.269,98.852,8.959,98.818,8.693z"/>
		<path fill="#FFFFFF" d="M105.464,9.5h0.034l2.363-3.416h2.584l-2.636,3.604l3.026,5.542h-2.584l-1.955-3.757l-0.833,1.088v2.669
			h-2.346V3.092h2.346V9.5z"/>
		<path fill="#FFFFFF" d="M115.069,3.465v2.619h1.36v1.598h-1.36v4.947c0,0.362,0.054,0.62,0.162,0.773
			c0.107,0.152,0.331,0.229,0.671,0.229c0.091,0,0.182-0.002,0.272-0.008s0.176-0.014,0.255-0.025v1.632
			c-0.261,0-0.513,0.009-0.757,0.025c-0.243,0.017-0.501,0.025-0.773,0.025c-0.453,0-0.824-0.031-1.113-0.093
			c-0.289-0.062-0.51-0.188-0.663-0.375c-0.153-0.187-0.258-0.434-0.314-0.738c-0.057-0.307-0.085-0.691-0.085-1.156V7.682h-1.19
			V6.084h1.19V3.465H115.069z"/>
		<path fill="#FFFFFF" d="M120.357,2.955v2.006h-2.346V2.955H120.357z M120.357,6.084v9.146h-2.346V6.084H120.357z"/>
		<path fill="#FFFFFF" d="M122.567,8.582c0.124-0.6,0.328-1.102,0.612-1.504c0.283-0.402,0.654-0.709,1.113-0.918
			c0.459-0.21,1.022-0.314,1.691-0.314c0.702-0.012,1.286,0.082,1.751,0.28s0.833,0.501,1.104,0.909
			c0.272,0.408,0.465,0.912,0.578,1.514c0.113,0.601,0.17,1.303,0.17,2.107c0,0.782-0.062,1.474-0.187,2.074
			c-0.125,0.602-0.329,1.103-0.612,1.504c-0.283,0.402-0.654,0.701-1.113,0.893c-0.459,0.193-1.022,0.289-1.691,0.289
			c-0.703,0.012-1.286-0.076-1.751-0.264c-0.465-0.187-0.833-0.48-1.105-0.883c-0.271-0.402-0.465-0.907-0.577-1.514
			c-0.114-0.605-0.171-1.307-0.171-2.1C122.379,9.875,122.442,9.184,122.567,8.582z M124.76,11.949
			c0.022,0.396,0.076,0.736,0.161,1.02s0.213,0.504,0.383,0.662c0.17,0.16,0.396,0.238,0.68,0.238c0.476,0,0.805-0.249,0.986-0.748
			c0.181-0.498,0.271-1.32,0.271-2.465s-0.091-1.966-0.271-2.465c-0.182-0.498-0.511-0.748-0.986-0.748
			c-0.283,0-0.51,0.08-0.68,0.238s-0.298,0.38-0.383,0.663s-0.139,0.623-0.161,1.02c-0.023,0.397-0.034,0.827-0.034,1.292
			S124.737,11.552,124.76,11.949z"/>
		<path fill="#FFFFFF" d="M133.77,6.084v1.07h0.033c0.25-0.453,0.572-0.785,0.97-0.994c0.396-0.21,0.85-0.314,1.359-0.314
			c0.748,0,1.323,0.203,1.726,0.611s0.604,1.071,0.604,1.989v6.783h-2.346V8.922c0-0.476-0.079-0.807-0.238-0.994
			c-0.158-0.187-0.414-0.28-0.765-0.28c-0.827,0-1.241,0.505-1.241,1.513v6.069h-2.346V6.084H133.77z"/>
	</g>
</g>
<g id="Contents_Zukunft">
</g>
</svg>
